<svg width="242" height="40" viewBox="0 0 242 40" fill="none" xmlns="http://www.w3.org/2000/svg">
<g clip-path="url(#clip0_681_15317)">
<path d="M41.6255 36.3933H42.009L41.9104 36.2348L41.6255 36.3933Z" fill="#242D40"/>
<path d="M39.2339 36.3934H39.6508L41.4172 35.4098L41.3075 35.23L39.2339 36.3934Z" fill="#242D40"/>
<path d="M40.7147 34.2358L36.8418 36.3934H37.2587L40.8134 34.4051L40.7147 34.2358Z" fill="#242D40"/>
<path d="M40.1117 33.2311L34.4395 36.3934H34.8564L40.2214 33.4109L40.1117 33.2311Z" fill="#242D40"/>
<path d="M39.5189 32.2369L32.0474 36.3934H32.4643L39.6176 32.4061L39.5189 32.2369Z" fill="#242D40"/>
<path d="M38.9156 31.2321L29.6558 36.3934H30.0617L39.0144 31.4014L38.9156 31.2321Z" fill="#242D40"/>
<path d="M38.3121 30.2274L27.2529 36.3934H27.6698L38.4218 30.4072L38.3121 30.2274Z" fill="#242D40"/>
<path d="M37.7198 29.2332L24.8613 36.3934H25.2782L37.8185 29.4024L37.7198 29.2332Z" fill="#242D40"/>
<path d="M37.1602 28.3025L22.645 36.3934H23.0619L37.2589 28.4717L37.1602 28.3025Z" fill="#242D40"/>
<path d="M36.1178 26.568L18.4648 36.3934H18.8818L36.2275 26.7372L36.1178 26.568Z" fill="#242D40"/>
<path d="M35.9202 26.2295L17.6748 36.3935H18.0807L36.0299 26.4093L35.9202 26.2295Z" fill="#242D40"/>
<path d="M35.7229 25.9016L16.874 36.3934H17.2909L35.8216 26.0709L35.7229 25.9016Z" fill="#242D40"/>
<path d="M35.5255 25.5632L16.0732 36.3934H16.4902L35.6243 25.743L35.5255 25.5632Z" fill="#242D40"/>
<path d="M35.3167 25.2353L15.272 36.3934H15.6889L35.4264 25.4045L35.3167 25.2353Z" fill="#242D40"/>
<path d="M35.1193 24.8969L14.4712 36.3934H14.8881L35.2291 25.0661L35.1193 24.8969Z" fill="#242D40"/>
<path d="M34.9218 24.569L13.6812 36.3934H14.0981L35.0315 24.7382L34.9218 24.569Z" fill="#242D40"/>
<path d="M34.7244 24.2306L12.8804 36.3934H13.2973L34.8232 24.3998L34.7244 24.2306Z" fill="#242D40"/>
<path d="M34.5271 23.9027L12.0796 36.3935H12.4965L34.6258 24.0719L34.5271 23.9027Z" fill="#242D40"/>
<path d="M34.3187 23.5642L11.2788 36.3934H11.6957L34.4284 23.7335L34.3187 23.5642Z" fill="#242D40"/>
<path d="M34.1211 23.2364L10.4888 36.3934H10.8947L34.2309 23.4056L34.1211 23.2364Z" fill="#242D40"/>
<path d="M33.9238 22.8979L9.68799 36.3935H10.1049L34.0335 23.0672L33.9238 22.8979Z" fill="#242D40"/>
<path d="M33.7259 22.5595L8.88672 36.3935H9.30363L33.8247 22.7393L33.7259 22.5595Z" fill="#242D40"/>
<path d="M33.5286 22.2316L8.08594 36.3934H8.50285L33.6273 22.4009L33.5286 22.2316Z" fill="#242D40"/>
<path d="M23.7529 25.2353L32.4313 20.4019L32.3215 20.2327L23.5444 25.119L23.7529 25.2353Z" fill="#242D40"/>
<path d="M21.7565 26.1132L6.99996 34.331L6.7915 34.6801L21.9649 26.2295L21.7565 26.1132Z" fill="#242D40"/>
<path d="M23.3471 25.0132L32.234 20.074L32.1242 19.8942L23.1387 24.8969L23.3471 25.0132Z" fill="#242D40"/>
<path d="M20.9552 25.669L7.78951 32.9984L7.58105 33.3475L21.1636 25.7853L20.9552 25.669Z" fill="#242D40"/>
<path d="M22.5461 24.569L31.8279 19.4077L31.7292 19.2279L22.3486 24.4527L22.5461 24.569Z" fill="#242D40"/>
<path d="M22.1513 24.3469L31.6306 19.0693L31.5319 18.9001L21.9429 24.2306L22.1513 24.3469Z" fill="#242D40"/>
<path d="M20.1656 25.2248L8.59078 31.6658L8.38232 32.0148L20.3741 25.3411L20.1656 25.2248Z" fill="#242D40"/>
<path d="M21.3505 23.9027L31.2358 18.403L31.1261 18.2337L21.1421 23.7864L21.3505 23.9027Z" fill="#242D40"/>
<path d="M19.3646 24.7805L9.39156 30.3332L9.18311 30.6716L19.573 24.8969L19.3646 24.7805Z" fill="#242D40"/>
<path d="M20.9555 23.6806L31.0382 18.0751L30.9285 17.8953L20.7471 23.5643L20.9555 23.6806Z" fill="#242D40"/>
<path d="M18.5635 24.3363L10.1923 29.0005L9.98389 29.339L18.772 24.4527L18.5635 24.3363Z" fill="#242D40"/>
<path d="M20.1543 23.2364L30.6319 17.4088L30.5332 17.229L19.9458 23.12L20.1543 23.2364Z" fill="#242D40"/>
<path d="M19.7597 23.0143L30.4349 17.0703L30.3252 16.9011L19.5513 22.898L19.7597 23.0143Z" fill="#242D40"/>
<path d="M17.7625 23.8921L10.9931 27.6573L10.7847 28.0063L17.9709 24.0085L17.7625 23.8921Z" fill="#242D40"/>
<path d="M18.9585 22.5701L30.0396 16.404L29.9298 16.2348L18.75 22.4537L18.9585 22.5701Z" fill="#242D40"/>
<path d="M16.9617 23.4479L11.7832 26.3247L11.5747 26.6737L17.1701 23.5642L16.9617 23.4479Z" fill="#242D40"/>
<path d="M18.5525 22.348L29.8311 16.0656L29.7323 15.8964L18.355 22.2316L18.5525 22.348Z" fill="#242D40"/>
<path d="M16.1721 23.0037L12.5844 24.9921L12.376 25.3411L16.3805 23.12L16.1721 23.0037Z" fill="#242D40"/>
<path d="M17.7627 21.9038L29.4362 15.3993L29.3265 15.23L17.5542 21.7874L17.7627 21.9038Z" fill="#242D40"/>
<path d="M17.3569 21.6817L29.2389 15.0714L29.1292 14.8916L17.1484 21.5653L17.3569 21.6817Z" fill="#242D40"/>
<path d="M15.371 22.5595L13.3852 23.6595L13.1768 24.0085L15.5795 22.6759L15.371 22.5595Z" fill="#242D40"/>
<path d="M16.5559 21.2374L28.8329 14.4051L28.7341 14.2253L16.3584 21.1211L16.5559 21.2374Z" fill="#242D40"/>
<path d="M14.57 22.1153L14.186 22.3268L13.9775 22.6758L14.7785 22.2316L14.57 22.1153Z" fill="#242D40"/>
<path d="M16.1611 21.0153L28.6356 14.0666L28.5368 13.8974L15.9526 20.899L16.1611 21.0153Z" fill="#242D40"/>
<path d="M28.2402 13.4003L28.1304 13.2311L15.3817 20.3279L15.272 20.5183L15.3597 20.5711L28.2402 13.4003Z" fill="#242D40"/>
<path d="M27.9331 12.8926L15.7768 19.6615L15.5684 20.0106L28.0428 13.0724L27.9331 12.8926Z" fill="#242D40"/>
<path d="M27.538 12.2263L16.5776 18.3289L16.3691 18.6779L27.6368 12.4061L27.538 12.2263Z" fill="#242D40"/>
<path d="M27.3408 11.8985L16.9729 17.6626L16.7754 18.0116L27.4396 12.0677L27.3408 11.8985Z" fill="#242D40"/>
<path d="M26.935 11.2321L17.7739 16.33L17.5654 16.679L27.0447 11.4014L26.935 11.2321Z" fill="#242D40"/>
<path d="M26.7373 10.8937L18.1796 15.6637L17.9712 16.0127L26.8361 11.0735L26.7373 10.8937Z" fill="#242D40"/>
<path d="M26.3422 10.2274L18.9695 14.331L18.772 14.6695L26.441 10.4072L26.3422 10.2274Z" fill="#242D40"/>
<path d="M26.1338 9.89954L19.3754 13.6647L19.167 14.0032L26.2435 10.0688L26.1338 9.89954Z" fill="#242D40"/>
<path d="M25.7387 9.23322L20.1762 12.3321L19.9678 12.6706L25.8375 9.40244L25.7387 9.23322Z" fill="#242D40"/>
<path d="M25.5413 8.89478L20.5712 11.6552L20.3628 12.0042L25.64 9.064L25.5413 8.89478Z" fill="#242D40"/>
<path d="M25.1357 8.22845L21.3725 10.3226L21.1641 10.6716L25.2454 8.39768L25.1357 8.22845Z" fill="#242D40"/>
<path d="M24.9378 7.90057L21.7671 9.65626L21.5586 10.0053L25.0475 8.0698L24.9378 7.90057Z" fill="#242D40"/>
<path d="M24.5432 7.22369L22.5683 8.32364L22.3599 8.67266L24.6419 7.40349L24.5432 7.22369Z" fill="#242D40"/>
<path d="M24.3457 6.89581L22.9633 7.65731L22.7549 8.00634L24.4445 7.06504L24.3457 6.89581Z" fill="#242D40"/>
<path d="M23.9392 6.22949L23.7639 6.32457L23.5557 6.67319L24.0488 6.39852L23.9392 6.22949Z" fill="#242D40"/>
<path d="M53.9574 0C44.2038 0 35.7558 6.59968 33.6932 15.7483L24.6308 0.613432C24.3017 0.0528821 23.4679 0.0528821 23.1278 0.613432L0.054928 39.1433C-0.109643 39.4289 0.0988136 39.7779 0.438927 39.7779H47.3197C47.6598 39.7779 47.8682 39.4289 47.7037 39.1433L47.6488 39.0481C49.6895 39.6827 51.8179 40.0106 53.9683 40.0106C65.4115 40.0106 74.7152 31.0418 74.7152 20.0106C74.7043 8.9688 65.4005 0 53.9574 0ZM44.6427 21.4172C46.7053 23.0037 49.1409 24.4209 51.4449 24.9498C51.7521 25.542 52.4214 26.2507 53.1455 26.2507H54.8461C55.636 26.2507 56.2394 25.4892 56.6124 24.8969C58.9164 24.4209 61.2314 23.247 63.2282 21.7134L61.7141 27.3718C61.1656 29.6668 59.0371 31.56 56.6124 31.56H51.2694C48.8447 31.56 46.7163 29.6774 46.1677 27.3718V27.1391L44.6427 21.4172ZM56.4259 22.7076C56.0639 22.2316 55.5153 22.1153 54.9119 22.1153H53.2113C52.5421 22.1153 51.9935 22.2951 51.6314 22.7604C48.7789 22.1153 45.8056 20.349 43.7979 18.1597L42.6459 13.8022V13.7705V13.7493C42.6459 12.6917 43.5565 12.1629 44.6536 12.1629H63.4147C64.5118 12.1629 65.3018 12.5119 65.3018 13.5801V13.6965L64.1498 18.0539C62.1311 20.2327 59.2127 22.0624 56.4259 22.7076ZM53.9354 36.6155C63.4147 36.6155 71.0618 29.1909 71.0618 20C71.0618 10.8091 63.4037 3.38445 53.9354 3.38445C44.4561 3.38445 36.8091 10.8091 36.8091 20C36.8091 20.3384 36.8201 20.6663 36.842 21.0048L35.1085 18.1068L35.1195 18.0116C36.1618 8.72554 44.2587 1.72396 53.9574 1.72396C64.4131 1.72396 72.905 9.92068 72.905 20C72.905 30.0793 64.4021 38.2655 53.9574 38.2655C51.3023 38.2655 48.735 37.7366 46.3103 36.7107L46.2225 36.6684L44.5768 33.9186C47.2758 35.6319 50.4794 36.6155 53.9354 36.6155ZM44.3355 38.1068H19.5291H15.9634H4.45446H3.43412C3.094 38.1068 2.88555 37.7578 3.05012 37.4722L3.56577 36.6155L13.7253 19.651L23.5008 3.32099C23.6654 3.03543 24.0932 3.03543 24.2688 3.32099L34.0443 19.651L37.8185 25.9439L44.7195 37.4617C44.884 37.7578 44.6646 38.1068 44.3355 38.1068Z" fill="#242D40"/>
<path d="M97.2726 5.58438L91.8527 5.67957L91.7979 2.9297L105.786 2.69702L105.841 5.44689L100.421 5.54208L100.685 19.8414L97.5359 19.8837L97.2726 5.58438Z" fill="#242D40"/>
<path d="M108.628 2.92969L111.777 2.87681L111.897 9.66687L120.159 9.52937L120.038 2.73931L123.187 2.68643L123.494 19.7356L120.345 19.7885L120.214 12.2792L111.952 12.4167L112.084 19.926L108.935 19.9789L108.628 2.92969Z" fill="#242D40"/>
<path d="M127.817 2.90853L139.534 2.70758L139.589 5.45745L131.021 5.60552L131.097 9.79378L139.216 9.65629L139.271 12.4062L131.152 12.5436L131.24 17.1655L140.258 17.0175L140.313 19.7673L128.146 19.9683L127.817 2.90853Z" fill="#242D40"/>
<path d="M149.87 3.0143L153.315 2.96142L156.858 15.1878H156.913L160.665 2.84508L163.759 2.7922L167.874 15.008H167.929L171.176 2.66528L174.369 2.6124L169.53 19.7462L166.535 19.7991L162.201 6.87469H162.147L158.285 19.926L155.388 19.9789L149.87 3.0143Z" fill="#242D40"/>
<path d="M177.023 2.90853L188.741 2.70758L188.796 5.45745L180.227 5.60552L180.304 9.79378L188.423 9.65629L188.478 12.4062L180.359 12.5436L180.447 17.1655L189.465 17.0175L189.52 19.7673L177.353 19.9683L177.023 2.90853Z" fill="#242D40"/>
<path d="M192.976 2.90855L199.866 2.79221C200.535 2.78163 201.194 2.84509 201.841 2.98259C202.488 3.12008 203.081 3.36334 203.585 3.70178C204.101 4.04023 204.518 4.47386 204.847 5.01326C205.176 5.55265 205.341 6.20839 205.363 6.98047C205.385 7.94292 205.11 8.74673 204.562 9.38132C204.002 10.0159 203.278 10.4813 202.368 10.7668V10.8197C202.916 10.8726 203.432 11.0101 203.915 11.2428C204.397 11.4649 204.803 11.761 205.143 12.11C205.483 12.4696 205.758 12.8821 205.955 13.3475C206.153 13.8128 206.262 14.3205 206.273 14.8705C206.295 15.8012 206.109 16.5839 205.736 17.2079C205.363 17.8319 204.869 18.3395 204.255 18.7309C203.64 19.1222 202.927 19.3972 202.126 19.577C201.325 19.7462 200.502 19.8414 199.669 19.8625L193.294 19.9683L192.976 2.90855ZM196.246 9.7938L199.12 9.74091C200.173 9.71976 200.952 9.51881 201.468 9.11691C201.984 8.715 202.236 8.19676 202.225 7.5516C202.214 6.81125 201.929 6.27185 201.38 5.91225C200.832 5.56323 199.965 5.39401 198.758 5.41516L196.158 5.45747L196.246 9.7938ZM196.377 17.3031L199.274 17.2502C199.669 17.2396 200.097 17.2079 200.557 17.155C201.018 17.1021 201.435 16.9752 201.808 16.7954C202.192 16.6156 202.499 16.3512 202.741 16.0233C202.982 15.6954 203.103 15.2407 203.092 14.6801C203.07 13.7811 202.763 13.1571 202.148 12.8187C201.534 12.4802 200.59 12.311 199.307 12.3321L196.289 12.385L196.377 17.3031Z" fill="#242D40"/>
<path d="M93.1914 26.568H100.389V27.5516H94.3105V31.6764H99.9608V32.66H94.3105V38.1597H93.1914V26.568Z" fill="#242D40"/>
<path d="M128.464 33.7176C128.464 34.3416 128.387 34.9339 128.245 35.505C128.102 36.0762 127.85 36.5733 127.51 37.0069C127.17 37.4405 126.709 37.7896 126.149 38.054C125.59 38.3184 124.898 38.4453 124.087 38.4453C123.275 38.4453 122.583 38.3184 122.024 38.054C121.464 37.7896 121.015 37.4405 120.663 37.0069C120.323 36.5733 120.071 36.0656 119.928 35.505C119.786 34.9339 119.709 34.3416 119.709 33.7176V26.5574H120.828V33.4321C120.828 33.8446 120.872 34.2888 120.949 34.7541C121.026 35.2195 121.179 35.6637 121.421 36.0656C121.651 36.4675 121.98 36.806 122.408 37.0598C122.836 37.3242 123.395 37.4511 124.098 37.4511C124.8 37.4511 125.359 37.3242 125.787 37.0598C126.215 36.7954 126.544 36.4675 126.775 36.0656C127.005 35.6637 127.159 35.2301 127.246 34.7541C127.323 34.2888 127.367 33.8446 127.367 33.4321V26.5574H128.486V33.7176H128.464Z" fill="#242D40"/>
<path d="M151.504 27.5516H147.39V26.568H156.727V27.5516H152.613V38.1597H151.493V27.5516H151.504Z" fill="#242D40"/>
<path d="M184.418 33.7176C184.418 34.3416 184.341 34.9339 184.199 35.505C184.056 36.0762 183.804 36.5733 183.464 37.0069C183.124 37.4405 182.663 37.7896 182.103 38.054C181.544 38.3184 180.853 38.4453 180.041 38.4453C179.229 38.4453 178.538 38.3184 177.978 38.054C177.419 37.7896 176.969 37.4405 176.618 37.0069C176.277 36.5733 176.025 36.0656 175.883 35.505C175.74 34.9339 175.663 34.3416 175.663 33.7176V26.5574H176.782V33.4321C176.782 33.8446 176.826 34.2888 176.903 34.7541C176.98 35.2195 177.133 35.6637 177.375 36.0656C177.605 36.4675 177.934 36.806 178.362 37.0598C178.79 37.3242 179.349 37.4511 180.052 37.4511C180.754 37.4511 181.313 37.3242 181.741 37.0598C182.169 36.7954 182.498 36.4675 182.729 36.0656C182.959 35.6637 183.113 35.2301 183.2 34.7541C183.277 34.2888 183.321 33.8446 183.321 33.4321V26.5574H184.44V33.7176H184.418Z" fill="#242D40"/>
<path d="M204.781 26.568H207.941C208.095 26.568 208.314 26.5786 208.588 26.5891C208.863 26.5997 209.159 26.6315 209.466 26.6843C209.784 26.7372 210.102 26.8218 210.432 26.9487C210.761 27.0651 211.057 27.2449 211.32 27.4776C211.584 27.7102 211.792 27.9958 211.968 28.3448C212.132 28.6939 212.22 29.1169 212.22 29.6246C212.22 30.1851 212.121 30.6399 211.924 30.9995C211.726 31.3591 211.474 31.6552 211.178 31.8774C210.881 32.0995 210.541 32.2687 210.179 32.3744C209.817 32.4802 209.477 32.5648 209.148 32.6071L212.648 38.1703H211.375L207.996 32.6706H205.911V38.1703H204.792V26.568H204.781ZM205.911 31.6764H208.292C208.885 31.6764 209.356 31.6024 209.729 31.4649C210.102 31.3274 210.388 31.1476 210.585 30.9361C210.794 30.7245 210.925 30.5024 211.002 30.2697C211.079 30.0265 211.112 29.815 211.112 29.614C211.112 29.413 211.079 29.2015 211.002 28.9583C210.925 28.715 210.794 28.4929 210.585 28.2919C210.377 28.0804 210.091 27.9112 209.729 27.7631C209.356 27.6256 208.885 27.5516 208.292 27.5516H205.911V31.6764Z" fill="#242D40"/>
<path d="M232.155 26.568H239.506V27.5516H233.274V31.6764H239.122V32.66H233.274V37.1761H239.78V38.1597H232.155V26.568Z" fill="#242D40"/>
<path d="M236.73 2.22106C238.145 2.22106 239.286 3.33158 239.286 4.68536V18.1809C239.286 19.5452 238.134 20.6452 236.73 20.6452H216.817C215.402 20.6452 214.261 19.5346 214.261 18.1809V4.68536C214.261 3.321 215.413 2.22106 216.817 2.22106H236.73ZM236.73 1.74512H216.817C215.138 1.74512 213.778 3.05659 213.778 4.67478V18.1703C213.778 19.7885 215.138 21.1 216.817 21.1H236.73C238.409 21.1 239.769 19.7885 239.769 18.1703V4.68536C239.78 3.06717 238.409 1.74512 236.73 1.74512Z" fill="#242D40"/>
<path d="M219.735 10.4389H220.404C220.591 10.4389 220.788 10.4283 220.964 10.3966C221.15 10.3649 221.315 10.3226 221.469 10.2485C221.622 10.1745 221.743 10.0687 221.831 9.93122C221.918 9.79373 221.962 9.61393 221.962 9.39183C221.962 9.10626 221.842 8.87358 221.611 8.69378C221.381 8.51398 221.096 8.4188 220.755 8.4188C220.437 8.4188 220.174 8.50341 219.966 8.67263C219.757 8.84185 219.614 9.0428 219.56 9.29664L217.299 8.85243C217.409 8.45053 217.574 8.1015 217.793 7.81594C218.013 7.53038 218.276 7.2977 218.572 7.12847C218.879 6.94867 219.208 6.82176 219.581 6.73715C219.955 6.65254 220.339 6.61023 220.755 6.61023C221.183 6.61023 221.6 6.66311 221.995 6.7583C222.39 6.85349 222.741 7.01213 223.048 7.23424C223.356 7.44577 223.586 7.72075 223.773 8.04862C223.959 8.37649 224.036 8.75724 224.036 9.21203C224.036 9.73027 223.893 10.1745 223.608 10.5447C223.323 10.9148 222.917 11.1475 222.379 11.2533V11.2956C222.675 11.3273 222.928 11.4119 223.158 11.5494C223.378 11.6869 223.575 11.8456 223.729 12.0359C223.882 12.2263 224.003 12.4484 224.08 12.6917C224.168 12.9349 224.2 13.1993 224.2 13.4743C224.2 13.9397 224.102 14.3522 223.915 14.7012C223.729 15.0502 223.476 15.3463 223.158 15.579C222.84 15.8117 222.478 15.9915 222.05 16.0973C221.622 16.2136 221.172 16.2665 220.701 16.2665C219.834 16.2665 219.088 16.0761 218.462 15.6848C217.837 15.2935 217.42 14.68 217.223 13.8445L219.384 13.358C219.461 13.6964 219.603 13.9608 219.834 14.1512C220.053 14.3416 220.393 14.4368 220.832 14.4368C221.282 14.4368 221.611 14.3204 221.831 14.0983C222.05 13.8762 222.149 13.5907 222.149 13.2311C222.149 12.9667 222.094 12.7657 221.973 12.6176C221.864 12.4696 221.71 12.3638 221.523 12.2898C221.337 12.2157 221.139 12.1734 220.909 12.1628C220.679 12.1523 220.448 12.1417 220.229 12.1417H219.746V10.4389H219.735Z" fill="#242D40"/>
<path d="M225.517 14.9656C225.517 14.7964 225.55 14.6378 225.616 14.4897C225.682 14.3416 225.769 14.2147 225.879 14.0984C225.989 13.9926 226.131 13.908 226.285 13.8445C226.439 13.7811 226.603 13.7494 226.779 13.7494C226.954 13.7494 227.119 13.7811 227.273 13.8445C227.426 13.908 227.558 13.9926 227.678 14.0984C227.788 14.2041 227.887 14.3416 227.942 14.4897C228.008 14.6378 228.041 14.7964 228.041 14.9656C228.041 15.1349 228.008 15.2935 227.942 15.4416C227.876 15.5897 227.788 15.7166 227.678 15.8329C227.569 15.9387 227.426 16.0339 227.273 16.0867C227.119 16.1396 226.954 16.1819 226.779 16.1819C226.603 16.1819 226.439 16.1502 226.285 16.0867C226.131 16.0233 226 15.9387 225.879 15.8329C225.769 15.7271 225.671 15.5897 225.616 15.4416C225.55 15.2935 225.517 15.1349 225.517 14.9656Z" fill="#242D40"/>
<path d="M229.126 11.4331C229.126 10.8831 229.181 10.312 229.28 9.7409C229.39 9.16977 229.576 8.65153 229.84 8.18616C230.114 7.7208 230.476 7.34005 230.948 7.04391C231.419 6.74777 232.012 6.5997 232.725 6.5997C233.449 6.5997 234.042 6.74777 234.502 7.04391C234.963 7.34005 235.336 7.7208 235.611 8.18616C235.885 8.65153 236.071 9.16977 236.17 9.7409C236.28 10.312 236.324 10.8726 236.324 11.4331C236.324 11.9937 236.269 12.5542 236.17 13.1253C236.06 13.6965 235.874 14.2147 235.611 14.6801C235.336 15.1454 234.974 15.5262 234.502 15.8223C234.042 16.1185 233.438 16.2665 232.725 16.2665C232.001 16.2665 231.409 16.1185 230.948 15.8223C230.487 15.5262 230.114 15.1454 229.84 14.6801C229.565 14.2147 229.379 13.6965 229.28 13.1253C229.17 12.5436 229.126 11.9831 229.126 11.4331ZM231.178 11.4331C231.178 11.6764 231.189 11.9725 231.211 12.3215C231.233 12.66 231.299 12.9984 231.398 13.3157C231.496 13.633 231.65 13.8974 231.858 14.1195C232.067 14.3416 232.352 14.4474 232.725 14.4474C233.087 14.4474 233.383 14.3416 233.592 14.1195C233.8 13.8974 233.954 13.633 234.053 13.3157C234.151 12.9984 234.217 12.6706 234.239 12.3215C234.261 11.9831 234.272 11.687 234.272 11.4331C234.272 11.1899 234.261 10.8937 234.239 10.5447C234.217 10.2063 234.151 9.86781 234.053 9.55052C233.954 9.23323 233.8 8.96882 233.592 8.74671C233.383 8.52461 233.098 8.41884 232.725 8.41884C232.352 8.41884 232.056 8.52461 231.858 8.74671C231.65 8.96882 231.496 9.23323 231.398 9.55052C231.299 9.86781 231.233 10.1957 231.211 10.5447C231.189 10.8831 231.178 11.1793 231.178 11.4331Z" fill="#242D40"/>
</g>
<defs>
<clipPath id="clip0_681_15317">
<rect width="241.842" height="40" fill="white"/>
</clipPath>
</defs>
</svg>
